<svg
    version="1.0"
    xmlns="http://www.w3.org/2000/svg"
    xmlns:xlink="http://www.w3.org/1999/xlink"
    width="512"
    height="512"
    viewBox="0 0 512 512"
  >
    <svg id="global-svg-defs" version="1.0" xmlns="http://www.w3.org/2000/svg" width="0" height="0" viewBox="0 0 340.000000 250.000000" preserveAspectRatio="xMidYMid meet" color-interpolation-filters="sRGB" class="el-tooltip" style="margin: auto;" xmlns:xlink="http://www.w3.org/1999/xlink">
    <defs>
      <pattern id="watermark" patternUnits="userSpaceOnUse" width="100%" height="100%">
        <image xlink:href="https://www.logosc.cn/img/watermark/LOGOSC-watermark.png" x="0" y="0" width="100%" height="100%">
        </image>
      </pattern>
                    <linearGradient id="92" x1="0%" y1="0%" x2="100%" y2="0%">
          <stop offset="0%" stop-color="#fa71cd"></stop>
          <stop offset="100%" stop-color="#9b59b6"></stop>
        </linearGradient>
              <linearGradient id="93" x1="0%" y1="0%" x2="100%" y2="0%">
          <stop offset="0%" stop-color="#f9d423"></stop>
          <stop offset="100%" stop-color="#f83600"></stop>
        </linearGradient>
              <linearGradient id="94" x1="0%" y1="0%" x2="100%" y2="0%">
          <stop offset="0%" stop-color="#0064d2"></stop>
          <stop offset="100%" stop-color="#1cb0f6"></stop>
        </linearGradient>
              <linearGradient id="95" x1="0%" y1="0%" x2="100%" y2="0%">
          <stop offset="0%" stop-color="#f00978"></stop>
          <stop offset="100%" stop-color="#3f51b1"></stop>
        </linearGradient>
              <linearGradient id="96" x1="0%" y1="0%" x2="100%" y2="0%">
          <stop offset="0%" stop-color="#7873f5"></stop>
          <stop offset="100%" stop-color="#ec77ab"></stop>
        </linearGradient>
              <linearGradient id="97" x1="0%" y1="0%" x2="100%" y2="0%">
          <stop offset="0%" stop-color="#f9d423"></stop>
          <stop offset="100%" stop-color="#e14fad"></stop>
        </linearGradient>
              <linearGradient id="98" x1="0%" y1="0%" x2="100%" y2="0%">
          <stop offset="0%" stop-color="#009efd"></stop>
          <stop offset="100%" stop-color="#2af598"></stop>
        </linearGradient>
              <linearGradient id="99" x1="0%" y1="0%" x2="100%" y2="0%">
          <stop offset="0%" stop-color="#ffcc00"></stop>
          <stop offset="100%" stop-color="#00b140"></stop>
        </linearGradient>
              <linearGradient id="100" x1="0%" y1="0%" x2="100%" y2="0%">
          <stop offset="0%" stop-color="#d51007"></stop>
          <stop offset="100%" stop-color="#ff8177"></stop>
        </linearGradient>
              <linearGradient id="102" x1="0%" y1="0%" x2="100%" y2="0%">
          <stop offset="0%" stop-color="#a2b6df"></stop>
          <stop offset="100%" stop-color="#0c3483"></stop>
        </linearGradient>
              <linearGradient id="103" x1="0%" y1="0%" x2="100%" y2="0%">
          <stop offset="0%" stop-color="#7ac5d8"></stop>
          <stop offset="100%" stop-color="#eea2a2"></stop>
        </linearGradient>
              <linearGradient id="104" x1="0%" y1="0%" x2="100%" y2="0%">
          <stop offset="0%" stop-color="#00ecbc"></stop>
          <stop offset="100%" stop-color="#007adf"></stop>
        </linearGradient>
              <linearGradient id="105" x1="0%" y1="0%" x2="100%" y2="0%">
          <stop offset="0%" stop-color="#b88746"></stop>
          <stop offset="100%" stop-color="#fdf5a6"></stop>
        </linearGradient>
              <linearGradient id="107" x1="0%" y1="0%" x2="100%" y2="0%">
          <stop offset="0%" stop-color="#ffbf00"></stop>
          <stop offset="100%" stop-color="#26b5f8"></stop>
        </linearGradient>
          </defs>
  </svg>
    <rect
      x="0"
      y="0"
      width="100%"
      height="100%"
      fill="transparent"
      fill-opacity="1"
    ></rect>
    <svg data-v-0dd9719b="" version="1.0" xmlns="http://www.w3.org/2000/svg" xmlns:xlink="http://www.w3.org/1999/xlink" width="100%" height="100%" viewBox="0 0 100 100" preserveAspectRatio="xMidYMid meet" color-interpolation-filters="sRGB" style="margin: auto;"> <rect data-v-0dd9719b="" x="0" y="0" width="100%" height="100%" fill="#ffffff" fill-opacity="1" class="background" style="display: none;"/> <rect data-v-0dd9719b="" x="0" y="0" width="100%" height="100%" fill="url(#watermark)" fill-opacity="1" class="watermarklayer" style="display: none;"/> <g data-v-0dd9719b="" fill="#333" class="iconsvg-imagesvg"><rect fill="#333" fill-opacity="0" stroke-width="2" x="0" y="0" width="100" height="100" class="image-rect"/> <svg viewBox="0 0 60 69.24328628636715" x="0" y="0" width="100" height="100" class="image-svg-svg bn" style="overflow: visible;"><g hollow-target="iconBnFill" mask="url(#62221275-b3bc-48f5-add0-b3413d6b31f9)"><g><svg fill="#000000" xmlns="http://www.w3.org/2000/svg" xmlns:xlink="http://www.w3.org/1999/xlink" version="1.1" x="0" y="0" viewBox="11.007 5 77.98599 90" enable-background="new 0 0 100 100" xml:space="preserve" style="overflow: visible;" width="60" height="69.24328628636715" filtersec="colorsb103501291" filter="url(#szrrwnEgwonY_DlegUwtJ)"><g transform="scale(1, 1) skewX(0)"><g><g><polygon points="50.043,5 11.05,27.462 11.007,72.461 49.957,95 88.949,72.536 88.993,27.537   "/></g></g></g><defs><filter id="szrrwnEgwonY_DlegUwtJ"><feColorMatrix type="matrix" values="0 0 0 0 0.19921875  0 0 0 0 0.19921875  0 0 0 0 0.19921875  0 0 0 1 0"/></filter></defs></svg></g> <g filter="url(#colors5033069120)"><svg xmlns="http://www.w3.org/2000/svg" xmlns:xlink="http://www.w3.org/1999/xlink" viewBox="0 0 40.536 54.57600000000001" width="45" height="51.93246" x="7.5" y="8.655413143183576" class="image-svg-letter"><path transform="translate(-2.16 52.70400000000001)" d="M23.26 1.87Q16.85 1.87 11.70 0.04Q6.55-1.80 2.16-5.40L2.16-5.40L8.28-14.90Q10.94-12.46 14.69-10.76Q18.43-9.07 21.67-9.07L21.67-9.07Q24.77-9.07 26.68-10.12Q28.58-11.16 28.58-13.03L28.58-13.03Q28.58-14.47 26.89-15.70Q25.20-16.92 21.46-18.79L21.46-18.79Q16.34-21.53 14.62-22.54L14.62-22.54Q9.86-25.56 7.16-28.98Q4.46-32.40 4.46-37.66L4.46-37.66Q4.46-44.78 9.47-48.74Q14.47-52.70 22.97-52.70L22.97-52.70Q28.73-52.70 33.66-50.90Q38.59-49.10 42.41-45.65L42.41-45.65L34.99-36.72Q32.54-39.17 29.88-40.79Q27.22-42.41 24.98-42.41L24.98-42.41Q22.32-42.41 20.45-40.79Q18.58-39.17 18.58-37.08L18.58-37.08Q18.58-35.06 20.45-33.62Q22.32-32.18 26.42-30.17L26.42-30.17Q28.37-29.30 30.24-28.30L30.24-28.30Q42.70-21.38 42.70-11.74L42.70-11.74Q42.70-5.33 37.58-1.73Q32.47 1.87 23.26 1.87L23.26 1.87Z"/></svg></g></g><mask id="62221275-b3bc-48f5-add0-b3413d6b31f9"><g fill="white"><svg xmlns="http://www.w3.org/2000/svg" xmlns:xlink="http://www.w3.org/1999/xlink" version="1.1" x="0" y="0" viewBox="11.007 5 77.98599 90" enable-background="new 0 0 100 100" xml:space="preserve" style="overflow: visible;" width="60" height="69.24328628636715" filtersec="colorsb103501291"><g transform="scale(1, 1) skewX(0)"><g><g><polygon points="50.043,5 11.05,27.462 11.007,72.461 49.957,95 88.949,72.536 88.993,27.537   "/></g></g></g><defs/></svg></g> <g fill="black"><svg xmlns="http://www.w3.org/2000/svg" xmlns:xlink="http://www.w3.org/1999/xlink" viewBox="0 0 40.536 54.57600000000001" width="45" height="51.93246" x="7.5" y="8.655413143183576" class="image-svg-letter"><path transform="translate(-2.16 52.70400000000001)" d="M23.26 1.87Q16.85 1.87 11.70 0.04Q6.55-1.80 2.16-5.40L2.16-5.40L8.28-14.90Q10.94-12.46 14.69-10.76Q18.43-9.07 21.67-9.07L21.67-9.07Q24.77-9.07 26.68-10.12Q28.58-11.16 28.58-13.03L28.58-13.03Q28.58-14.47 26.89-15.70Q25.20-16.92 21.46-18.79L21.46-18.79Q16.34-21.53 14.62-22.54L14.62-22.54Q9.86-25.56 7.16-28.98Q4.46-32.40 4.46-37.66L4.46-37.66Q4.46-44.78 9.47-48.74Q14.47-52.70 22.97-52.70L22.97-52.70Q28.73-52.70 33.66-50.90Q38.59-49.10 42.41-45.65L42.41-45.65L34.99-36.72Q32.54-39.17 29.88-40.79Q27.22-42.41 24.98-42.41L24.98-42.41Q22.32-42.41 20.45-40.79Q18.58-39.17 18.58-37.08L18.58-37.08Q18.58-35.06 20.45-33.62Q22.32-32.18 26.42-30.17L26.42-30.17Q28.37-29.30 30.24-28.30L30.24-28.30Q42.70-21.38 42.70-11.74L42.70-11.74Q42.70-5.33 37.58-1.73Q32.47 1.87 23.26 1.87L23.26 1.87Z"/></svg></g></mask></svg> <defs><filter id="colors5033069120"><feColorMatrix type="matrix" values="0 0 0 0 0.19921875  0 0 0 0 0.19921875  0 0 0 0 0.19921875  0 0 0 1 0" class="icon-fecolormatrix"/></filter> <filter id="colorsf6849429288"><feColorMatrix type="matrix" values="0 0 0 0 0.99609375  0 0 0 0 0.99609375  0 0 0 0 0.99609375  0 0 0 1 0" class="icon-fecolormatrix"/></filter> <filter id="colorsb103501291"><feColorMatrix type="matrix" values="0 0 0 0 0  0 0 0 0 0  0 0 0 0 0  0 0 0 1 0" class="icon-fecolormatrix"/></filter></defs></g><defs v-gra="od"/></svg>
  </svg>